<svg width="36" height="36" viewBox="0 0 36 36" fill="none" xmlns="http://www.w3.org/2000/svg">
<path d="M23.3977 14.9074C23.3977 14.961 23.3965 15.0142 23.3941 15.0671C23.0553 14.7665 22.618 14.6008 22.1651 14.6014C21.9707 14.6014 21.7815 14.631 21.5975 14.6902V9.50065C21.5975 9.26192 21.5026 9.03297 21.3338 8.86416C21.165 8.69536 20.9361 8.60052 20.6973 8.60052H10.4959C10.2571 8.60052 10.0282 8.69536 9.85936 8.86416C9.69056 9.03297 9.59572 9.26192 9.59572 9.50065V14.9074C9.59572 15.4043 9.99898 15.8076 10.4959 15.8076H20.4285L20.4165 15.8376L20.4129 15.852L19.8728 17.513L19.8608 17.5442L19.838 17.6078H10.4959C9.77966 17.6078 9.09281 17.3233 8.58639 16.8169C8.07996 16.3105 7.79546 15.6236 7.79546 14.9074V9.50065C7.79546 8.78446 8.07996 8.09761 8.58639 7.59119C9.09281 7.08477 9.77966 6.80026 10.4959 6.80026H14.6965V5.90013C14.6965 5.68243 14.7754 5.47213 14.9187 5.30817C15.0619 5.14422 15.2597 5.03772 15.4754 5.0084L15.5966 5C15.8143 5.00005 16.0246 5.07899 16.1885 5.2222C16.3525 5.36542 16.459 5.5632 16.4883 5.77891L16.4967 5.90013L16.4955 6.80026H20.6961C21.4123 6.80026 22.0992 7.08477 22.6056 7.59119C23.112 8.09761 23.3965 8.78446 23.3965 9.50065L23.3977 14.9074ZM16.8484 19.4453L16.9828 19.4021H8.70039C7.9842 19.4021 7.29735 19.6866 6.79093 20.193C6.2845 20.6994 6 21.3863 6 22.1025V23.191C5.99988 23.8392 6.13977 24.4797 6.41008 25.0688C6.6804 25.658 7.07478 26.1817 7.56623 26.6043C9.4421 28.2162 12.1293 29.0047 15.5966 29.0047C18.0882 29.0047 20.1777 28.5978 21.8531 27.7709C21.5346 27.7099 21.2376 27.5668 20.9915 27.3556C20.7454 27.1445 20.5587 26.8726 20.4501 26.5671L20.4453 26.5527L20.4093 26.4411C19.1059 26.9476 17.5049 27.2044 15.5966 27.2044C12.5253 27.2044 10.2498 26.5371 8.74 25.2385C8.44519 24.985 8.2086 24.6708 8.04641 24.3175C7.88422 23.9641 7.80026 23.5799 7.80026 23.191V22.1025C7.80026 21.8637 7.8951 21.6348 8.0639 21.466C8.23271 21.2972 8.46166 21.2023 8.70039 21.2023H15.5966V21.1987C15.596 20.8151 15.7147 20.4407 15.9365 20.1276C16.1582 19.8145 16.4719 19.5781 16.834 19.4513L16.8484 19.4453ZM14.3952 11.901C14.4009 11.7005 14.3663 11.5009 14.2935 11.314C14.2207 11.1271 14.1111 10.9567 13.9713 10.8129C13.8315 10.669 13.6643 10.5547 13.4795 10.4766C13.2947 10.3986 13.0962 10.3584 12.8956 10.3584C12.695 10.3584 12.4965 10.3986 12.3117 10.4766C12.1269 10.5547 11.9597 10.669 11.8199 10.8129C11.6801 10.9567 11.5705 11.1271 11.4977 11.314C11.4249 11.5009 11.3903 11.7005 11.396 11.901C11.407 12.2914 11.5699 12.6621 11.8499 12.9343C12.1299 13.2065 12.5051 13.3588 12.8956 13.3588C13.2861 13.3588 13.6613 13.2065 13.9413 12.9343C14.2213 12.6621 14.3842 12.2914 14.3952 11.901ZM18.2874 10.4008C18.4879 10.3951 18.6875 10.4297 18.8744 10.5025C19.0613 10.5753 19.2317 10.6849 19.3755 10.8247C19.5193 10.9645 19.6337 11.1317 19.7117 11.3165C19.7898 11.5013 19.83 11.6998 19.83 11.9004C19.83 12.101 19.7898 12.2995 19.7117 12.4843C19.6337 12.6691 19.5193 12.8363 19.3755 12.9761C19.2317 13.1159 19.0613 13.2255 18.8744 13.2983C18.6875 13.3711 18.4879 13.4057 18.2874 13.4C17.897 13.389 17.5263 13.2261 17.2541 12.9461C16.9819 12.6661 16.8296 12.2909 16.8296 11.9004C16.8296 11.5099 16.9819 11.1347 17.2541 10.8547C17.5263 10.5747 17.897 10.4118 18.2874 10.4008ZM20.5041 23.4971C20.0908 22.9626 19.5275 22.5636 18.8863 22.3509L17.2336 21.8132C17.1067 21.768 16.9968 21.6847 16.9191 21.5745C16.8414 21.4644 16.7997 21.3329 16.7997 21.1981C16.7997 21.0634 16.8414 20.9319 16.9191 20.8218C16.9968 20.7116 17.1067 20.6283 17.2336 20.5831L18.8863 20.0454C19.3759 19.8765 19.8206 19.5983 20.1866 19.2319C20.5526 18.8655 20.8303 18.4205 20.9986 17.9307L21.0106 17.8899L21.5494 16.2372C21.5944 16.1098 21.6778 15.9995 21.788 15.9215C21.8983 15.8435 22.0301 15.8016 22.1651 15.8016C22.3002 15.8016 22.432 15.8435 22.5423 15.9215C22.6525 15.9995 22.7359 16.1098 22.7808 16.2372L23.3185 17.8899C23.4861 18.3921 23.7683 18.8483 24.1429 19.2225C24.5175 19.5966 24.974 19.8784 25.4764 20.0454L27.1303 20.5831L27.1627 20.5915C27.2896 20.6367 27.3995 20.72 27.4772 20.8302C27.5549 20.9403 27.5966 21.0718 27.5966 21.2065C27.5966 21.3413 27.5549 21.4728 27.4772 21.5829C27.3995 21.6931 27.2896 21.7764 27.1627 21.8216L25.5088 22.3593C25.0064 22.5263 24.5499 22.8081 24.1753 23.1822C23.8008 23.5564 23.5185 24.0126 23.3509 24.5148L22.8144 26.1675C22.7687 26.2948 22.6849 26.405 22.5744 26.4831C22.492 26.5414 22.3972 26.5797 22.2975 26.5952C22.1977 26.6107 22.0958 26.6028 21.9996 26.5722C21.9034 26.5416 21.8157 26.4891 21.7432 26.4189C21.6707 26.3487 21.6155 26.2626 21.5819 26.1675L21.0442 24.5148C20.9241 24.147 20.7414 23.8027 20.5041 23.4971ZM29.7382 28.0589L28.8201 27.7613C28.541 27.6683 28.2875 27.5117 28.0794 27.3038C27.8713 27.0959 27.7144 26.8425 27.6211 26.5635L27.3223 25.6454C27.2974 25.5745 27.2512 25.5131 27.1899 25.4696C27.1286 25.4262 27.0554 25.4028 26.9802 25.4028C26.9051 25.4028 26.8319 25.4262 26.7706 25.4696C26.7093 25.5131 26.663 25.5745 26.6382 25.6454L26.3393 26.5623C26.2482 26.8395 26.0943 27.0918 25.8897 27.2998C25.6851 27.5077 25.4352 27.6657 25.1596 27.7613L24.2402 28.0589C24.1693 28.0838 24.1079 28.13 24.0645 28.1913C24.021 28.2526 23.9977 28.3259 23.9977 28.401C23.9977 28.4761 24.021 28.5494 24.0645 28.6106C24.1079 28.6719 24.1693 28.7182 24.2402 28.743L25.1596 29.0419C25.4391 29.1353 25.6931 29.2927 25.9012 29.5015C26.1093 29.7102 26.2659 29.9646 26.3585 30.2445L26.6562 31.1614C26.6816 31.2317 26.7281 31.2925 26.7893 31.3355C26.8505 31.3785 26.9234 31.4016 26.9982 31.4016C27.073 31.4016 27.146 31.3785 27.2072 31.3355C27.2684 31.2925 27.3149 31.2317 27.3403 31.1614L27.6403 30.2445C27.7333 29.9654 27.8899 29.7118 28.0978 29.5037C28.3057 29.2956 28.5591 29.1387 28.8381 29.0455L29.7574 28.7478C29.8283 28.723 29.8898 28.6767 29.9332 28.6154C29.9767 28.5542 30 28.4809 30 28.4058C30 28.3307 29.9767 28.2574 29.9332 28.1961C29.8898 28.1348 29.8283 28.0886 29.7574 28.0637L29.7382 28.0589Z" fill="#FF7631"/>
</svg>
